# xmcd
#
# Track frame offsets:
#	150
#	9617
#	21821
#	33687
#	45337
#	56453
#	67758
#	79232
#	90194
#	101774
#	112687
#	124108
#	134373
#	144492
#	155548
#	167738
#	180033
#	189317
#	199895
#	210176
#	221802
#	232447
#	242871
#	253875
#	264825
#	277286
#	288520
#	298435
#	309114
#	320847
#	331276
#	343138
#	354116
#	366615
#	379520
#
# Disc length: 5228 seconds
# Revision: 0
# Processed by: cddbd v1.5.2PL0 Copyright (c) Steve Scherf et al.
# Submitted via: dBpowerAMP V12.0
#
DISCID=11146a23
DTITLE=Various Artist - Rockin' The Groove
DYEAR=1900
DGENRE=R and B
TTITLE0=Frank Brunson - Charmaine
TTITLE1=Emmett Hobson - Mattie Bee
TTITLE2=Zilla Mays - Right Now
TTITLE3=Paul Williams - Big Foot Mammy
TTITLE4=Roy Gaines - Hoodoo
TTITLE5=George Benson - Shout, Holler And Scream
TTITLE6=Beverly Wright - Blackboard Rock
TTITLE7=Clayton Love - Bye Bye Baby
TTITLE8=Sonny Brooks - Champ Ale
TTITLE9=Johnny Bird Orchestra with Mr. Blue vocals - The Laugh Will Be On You
TTITLE10=Lil McKenzie - Run A' Long
TTITLE11=Buddy Lucas - I'm Trapped
TTITLE12=Big Connie - She's Mine
TTITLE13=Chris Powell and The Blue Flames - Break It Up
TTITLE14=Maymie Watts - Quicksand
TTITLE15=Oscar Black - My Head Goes Round
TTITLE16=Chris Powell and The Blue Flames - Good-Bye Little Girl
TTITLE17=Little Tommy Brown - The Thrill Is Gone
TTITLE18=Sam 'Highpockets' Henderson And His Jumpers - Grab That Thing And Run
TTITLE19=Bertice Reading - I Gotta Know
TTITLE20=Johnny Bird Orchestra with Lillian Childs Vocal - 22 Minutes
TTITLE21=The Du Droppers - That's All I Need
TTITLE22=Maymie Watts - Doo Ba Dee
TTITLE23=Emmett Hobson - Where Is Joe?
TTITLE24=Beverly Wright - Shake Till I'm Shook
TTITLE25=Frank Brunson - I Believe In You
TTITLE26=Chris Powell and The Blue Flames - Love Ya Like Crazy
TTITLE27=Roy Gaines - Alabama Sue
TTITLE28=The Avalons - Oh! Sweetness
TTITLE29=Zilla Mays - Since You Went Away
TTITLE30=The Coronets - Crime Doesn't Pay
TTITLE31=Paul Williams - Women Are The Root Of All Evil
TTITLE32=George Benson - A Little Boy's Dream
TTITLE33=Paul Williams - Humpty Dumpty
TTITLE34=Maymie Watts - Whell Of Time
EXTD=
EXTT0=
EXTT1=
EXTT2=
EXTT3=
EXTT4=
EXTT5=
EXTT6=
EXTT7=
EXTT8=
EXTT9=
EXTT10=
EXTT11=
EXTT12=
EXTT13=
EXTT14=
EXTT15=
EXTT16=
EXTT17=
EXTT18=
EXTT19=
EXTT20=
EXTT21=
EXTT22=
EXTT23=
EXTT24=
EXTT25=
EXTT26=
EXTT27=
EXTT28=
EXTT29=
EXTT30=
EXTT31=
EXTT32=
EXTT33=
EXTT34=
PLAYORDER=
